<?xml version="1.0" standalone="no"?>
<!DOCTYPE svg PUBLIC "-//W3C//DTD SVG 20010904//EN"
 "http://www.w3.org/TR/2001/REC-SVG-20010904/DTD/svg10.dtd">
<svg version="1.0" xmlns="http://www.w3.org/2000/svg"
 width="1920.000000pt" height="1080.000000pt" viewBox="0 0 1920.000000 1080.000000"
 preserveAspectRatio="xMidYMid meet">

<g transform="translate(0.000000,1080.000000) scale(0.100000,-0.100000)"
fill="#ffffff" stroke="none">
<path d="M12495 8611 c-77 -22 -110 -40 -166 -89 -97 -86 -137 -258 -89 -384
36 -95 137 -191 232 -219 230 -67 458 11 548 187 36 70 41 205 10 286 -39 105
-141 191 -264 224 -70 19 -198 16 -271 -5z"/>
<path d="M2515 8235 c-639 -119 -1025 -605 -1025 -1290 0 -518 219 -929 613
-1149 377 -211 932 -219 1307 -19 219 117 385 289 495 512 38 76 79 190 99
274 l6 27 -387 0 -388 0 -25 -47 c-78 -148 -263 -253 -445 -253 -248 0 -438
147 -517 400 -21 67 -23 94 -23 260 0 177 2 189 28 265 65 185 182 306 347
361 112 37 301 20 414 -38 55 -28 155 -126 191 -187 l30 -51 389 0 c333 0 387
2 383 14 -3 8 -11 34 -17 58 -86 327 -308 602 -608 752 -64 32 -204 80 -298
102 -101 23 -462 28 -569 9z"/>
<path d="M10848 7953 l-3 -248 -128 -3 -127 -3 2 -297 3 -297 128 -3 127 -3 0
-398 c0 -309 3 -418 15 -484 50 -287 211 -464 490 -538 69 -19 116 -22 338
-26 l257 -5 0 306 0 306 -132 0 c-110 0 -140 4 -176 20 -71 32 -72 36 -72 455
l0 365 185 0 185 0 0 300 0 300 -185 0 -185 0 0 250 0 250 -360 0 -360 0 -2
-247z"/>
<path d="M6742 7719 c-265 -34 -511 -169 -659 -362 -150 -195 -223 -449 -209
-737 16 -364 152 -630 418 -818 235 -166 602 -223 914 -141 336 88 584 321
684 640 l18 59 -384 0 -383 0 -15 -27 c-19 -37 -72 -86 -116 -108 -51 -26
-154 -31 -224 -11 -105 31 -180 132 -200 269 l-7 47 679 0 679 0 7 46 c10 78
7 214 -9 314 -68 453 -375 756 -835 826 -102 15 -256 17 -358 3z m309 -586
c91 -41 149 -114 164 -210 l7 -43 -317 0 -317 0 7 37 c20 109 111 205 220 234
54 14 186 4 236 -18z"/>
<path d="M8851 7715 c-371 -70 -638 -375 -707 -808 -20 -125 -15 -413 10 -522
64 -288 216 -522 419 -643 138 -83 259 -115 437 -115 139 0 222 19 337 75 81
39 186 128 240 203 l22 30 0 -142 1 -143 355 0 355 0 0 1025 0 1025 -355 0
-355 0 0 -135 c0 -74 -4 -135 -8 -135 -4 0 -15 13 -25 28 -9 16 -47 58 -84 93
-74 70 -177 127 -278 154 -85 22 -272 28 -364 10z m495 -632 c123 -41 215
-148 248 -286 11 -47 8 -200 -5 -253 -27 -108 -101 -209 -187 -253 -126 -64
-309 -43 -407 47 -92 85 -134 192 -135 341 0 139 40 243 126 328 42 40 69 57
117 72 77 25 178 26 243 4z"/>
<path d="M16530 7720 c-389 -55 -697 -306 -809 -658 -43 -135 -55 -224 -55
-392 1 -331 104 -589 313 -783 82 -76 135 -111 246 -163 219 -104 517 -129
770 -64 335 86 594 329 688 648 l16 52 -382 0 -382 -1 -34 -48 c-60 -84 -132
-116 -246 -109 -153 10 -251 108 -274 276 l-8 52 678 0 678 0 7 36 c4 20 4
104 1 188 -6 182 -34 302 -101 440 -128 262 -337 426 -641 502 -113 28 -348
40 -465 24z m296 -581 c100 -38 167 -117 181 -214 l6 -45 -317 0 -318 0 7 31
c26 116 116 215 218 239 65 16 164 11 223 -11z"/>
<path d="M5615 7709 c-89 -13 -196 -55 -282 -111 -75 -49 -199 -164 -241 -223
l-21 -30 -1 178 0 177 -360 0 -360 0 0 -1025 0 -1025 360 0 359 0 3 518 c3
502 4 519 24 569 67 162 180 213 472 213 l162 0 0 385 0 385 -27 -1 c-16 -1
-55 -5 -88 -10z"/>
<path d="M12270 6675 l0 -1025 360 0 360 0 0 1025 0 1025 -360 0 -360 0 0
-1025z"/>
<path d="M13308 7477 c43 -122 201 -584 352 -1025 l275 -802 449 3 450 2 351
1023 352 1022 -383 0 c-356 0 -383 -1 -388 -17 -3 -10 -87 -313 -187 -673
-100 -360 -185 -658 -189 -663 -3 -4 -93 299 -199 673 l-193 680 -383 0 -383
0 76 -223z"/>
<path d="M6275 4870 c-38 -5 -99 -18 -135 -29 -199 -63 -363 -242 -414 -451
-18 -74 -36 -221 -36 -292 0 -27 -2 -48 -5 -48 -2 0 -29 17 -59 38 -30 22 -74
46 -98 55 l-43 17 -2 58 c-2 70 -19 141 -40 164 -18 20 -46 16 -105 -13 -21
-11 -41 -19 -46 -19 -5 0 -21 18 -36 40 -29 44 -78 74 -104 65 -43 -15 -166
-209 -193 -305 -9 -32 -28 -60 -65 -96 -148 -145 -211 -338 -201 -619 12 -334
132 -582 369 -765 115 -89 184 -125 307 -158 87 -23 115 -25 291 -26 201 -1
252 5 380 46 303 97 552 361 645 683 55 192 51 404 -12 644 -90 344 -110 476
-93 618 14 114 41 180 100 247 42 48 48 60 40 76 -25 47 -288 88 -445 70z
m267 -91 l56 -11 -33 -62 c-59 -108 -70 -162 -68 -331 2 -163 10 -209 93 -520
l43 -160 1 -185 c0 -174 -1 -190 -27 -273 -54 -173 -134 -304 -263 -427 -122
-117 -254 -188 -421 -227 -101 -23 -394 -24 -493 -2 l-65 15 66 7 c210 22 322
121 381 335 19 68 22 103 21 293 l0 216 65 32 c128 63 217 179 210 274 -3 42
-3 42 -50 48 -68 10 -172 66 -257 139 -23 20 -23 20 -18 198 6 199 18 257 75
367 69 132 194 230 342 269 67 18 264 20 342 5z m-1342 -451 c11 -18 25 -57
31 -88 25 -123 18 -115 122 -132 60 -10 116 -27 159 -48 64 -31 94 -54 260
-199 66 -57 165 -117 216 -130 l25 -7 -35 -36 c-102 -102 -312 -132 -568 -83
-56 11 -118 16 -181 13 -84 -3 -104 -8 -163 -37 -125 -61 -211 -173 -239 -309
-7 -33 -15 -64 -19 -67 -14 -14 -33 148 -33 280 0 242 49 381 182 512 47 47
73 81 73 95 1 52 116 268 143 268 4 0 16 -15 27 -32z m194 -44 c3 -9 6 -34 6
-55 l0 -40 -37 3 c-33 3 -38 7 -44 36 -6 30 -4 36 25 53 38 23 42 23 50 3z
m-4 -759 c41 -8 131 -18 198 -22 l124 -6 -84 -24 c-185 -53 -318 -125 -422
-228 -107 -106 -166 -234 -166 -364 0 -54 0 -54 -21 -35 -11 10 -41 60 -66
110 -41 83 -46 100 -50 181 -9 147 37 256 141 334 90 68 195 84 346 54z m360
-212 c0 -46 -4 -83 -10 -83 -50 0 -103 68 -98 127 3 35 6 38 48 48 32 8 47 8
52 1 4 -6 8 -48 8 -93z m-190 20 c1 -73 72 -158 151 -182 39 -12 39 -12 39
-64 0 -29 -7 -82 -14 -118 -51 -237 -225 -326 -538 -273 -42 7 -51 25 -68 129
-32 198 101 393 341 505 80 36 89 37 89 3z"/>
<path d="M7890 3685 l0 -1175 328 2 327 3 3 458 2 457 345 0 345 0 0 250 0
250 -345 0 -345 0 0 205 0 205 468 2 467 3 3 258 2 257 -800 0 -800 0 0 -1175z"/>
<path d="M10465 4394 c-160 -39 -221 -58 -279 -84 -261 -117 -449 -354 -508
-640 -27 -130 -21 -385 12 -505 72 -264 249 -473 496 -585 242 -109 590 -117
844 -19 275 106 477 328 550 605 51 197 44 444 -18 624 -79 228 -255 420 -478
521 -137 62 -232 81 -424 85 -96 1 -184 1 -195 -2z m297 -586 c84 -36 154
-129 178 -240 18 -82 8 -238 -20 -308 -50 -125 -155 -200 -280 -200 -96 0
-155 23 -215 85 -57 58 -79 112 -95 224 -19 133 11 273 76 358 77 101 228 135
356 81z"/>
<path d="M11724 4354 c10 -14 151 -211 315 -437 163 -227 300 -418 305 -424 5
-10 -321 -531 -602 -960 l-14 -23 358 0 359 0 133 235 134 236 32 -43 c18 -24
94 -130 170 -235 l137 -193 365 0 c290 0 364 3 358 13 -5 6 -152 212 -329 457
-176 244 -319 448 -317 452 1 5 142 217 312 473 171 256 310 467 310 470 0 3
-160 4 -356 3 l-355 -3 -130 -225 c-71 -124 -133 -226 -137 -227 -4 -2 -81
101 -170 227 l-164 230 -365 0 -365 0 16 -26z"/>
</g>
</svg>
