<?xml version="1.0" standalone="no"?>
<!DOCTYPE svg PUBLIC "-//W3C//DTD SVG 20010904//EN"
 "http://www.w3.org/TR/2001/REC-SVG-20010904/DTD/svg10.dtd">
<svg version="1.0" xmlns="http://www.w3.org/2000/svg"
 width="500.000000pt" height="500.000000pt" viewBox="0 0 500.000000 500.000000"
 preserveAspectRatio="xMidYMid meet">

<g transform="translate(0.000000,500.000000) scale(0.100000,-0.100000)"
fill="#5e17eb" stroke="none">
<path d="M3545 4816 c-299 -50 -554 -187 -731 -392 -225 -261 -320 -546 -331
-996 -3 -115 -8 -208 -10 -208 -3 0 -22 13 -42 29 -63 50 -192 127 -276 163
l-80 35 -7 106 c-7 120 -22 199 -50 275 -21 56 -40 72 -86 72 -31 0 -153 -47
-210 -80 -18 -11 -35 -20 -37 -20 -3 0 -13 17 -24 39 -29 55 -115 146 -161
169 -61 30 -82 20 -159 -72 -88 -104 -162 -217 -216 -331 -40 -84 -95 -239
-95 -269 0 -7 -18 -26 -41 -42 -59 -40 -162 -155 -224 -249 -99 -149 -169
-332 -208 -549 -30 -163 -32 -551 -4 -721 91 -552 340 -967 762 -1267 161
-114 194 -134 288 -174 355 -152 959 -187 1403 -80 254 62 451 154 669 316
488 361 795 967 795 1568 0 270 -34 493 -127 832 -116 425 -145 565 -163 786
-28 350 49 634 217 802 74 74 82 91 62 136 -15 31 -106 63 -289 101 -105 22
-158 27 -335 30 -145 3 -235 0 -290 -9z m559 -166 c66 -11 122 -22 124 -25 3
-3 -8 -24 -25 -48 -72 -100 -136 -264 -164 -417 -9 -48 -14 -149 -14 -280 1
-286 25 -426 159 -913 110 -399 132 -554 123 -876 -6 -222 -22 -317 -87 -513
-198 -593 -688 -1046 -1280 -1182 -180 -42 -443 -59 -665 -45 -150 10 -410 50
-443 68 -8 5 35 10 104 14 148 7 251 33 374 94 78 38 109 61 176 128 67 68 89
99 132 186 54 109 92 236 114 379 14 97 17 504 5 708 l-8 132 93 43 c121 57
193 104 272 178 117 109 186 243 189 367 2 56 -1 66 -22 83 -14 11 -39 19 -62
19 -62 0 -188 45 -283 102 -126 75 -269 192 -277 226 -11 45 -10 373 1 483 22
219 61 377 128 514 165 336 458 542 847 594 103 14 352 5 489 -19z m-2571
-904 c33 -67 65 -182 73 -264 10 -96 28 -112 137 -123 122 -12 217 -36 325
-80 155 -63 234 -118 422 -294 202 -189 389 -315 534 -361 31 -10 56 -23 56
-30 0 -27 -132 -134 -213 -173 -238 -115 -512 -127 -967 -44 -177 33 -366 36
-470 9 -268 -71 -456 -226 -570 -469 -42 -88 -79 -224 -81 -292 -1 -22 -4 -51
-8 -65 -6 -20 -12 -7 -29 67 -50 207 -70 476 -52 673 37 401 163 678 398 873
56 46 83 76 87 95 36 183 127 374 253 530 l34 43 23 -21 c12 -11 34 -45 48
-74z m362 -43 c4 -10 10 -61 12 -114 l6 -96 -72 11 c-83 13 -89 19 -93 96 l-3
52 60 34 c69 39 80 41 90 17z m-68 -1472 c240 -47 315 -55 525 -56 114 0 204
-3 200 -6 -4 -4 -43 -14 -87 -24 -132 -28 -365 -109 -500 -174 -394 -188 -639
-449 -728 -775 -17 -65 -22 -109 -22 -218 0 -76 -1 -138 -3 -138 -1 0 -30 37
-63 82 -226 305 -280 656 -144 933 77 156 174 257 313 325 146 71 317 88 509
51z m757 -368 c4 -82 9 -165 11 -185 3 -20 2 -39 -2 -41 -16 -9 -100 24 -135
53 -20 17 -49 55 -63 85 -31 62 -45 168 -25 180 13 8 174 52 196 54 8 1 14
-45 18 -146z m-366 -34 c26 -151 118 -271 246 -322 36 -15 75 -27 85 -27 53 0
53 -1 30 -210 -61 -565 -399 -773 -1067 -659 -59 11 -64 14 -83 50 -10 21 -29
78 -40 126 -29 121 -23 304 14 408 85 245 254 430 537 590 67 38 237 114 255
115 6 0 16 -32 23 -71z"/>
</g>
</svg>
