<?xml version="1.0" standalone="no"?>
<!DOCTYPE svg PUBLIC "-//W3C//DTD SVG 20010904//EN"
 "http://www.w3.org/TR/2001/REC-SVG-20010904/DTD/svg10.dtd">
<svg version="1.0" xmlns="http://www.w3.org/2000/svg"
 width="500.000000pt" height="500.000000pt" viewBox="0 0 500.000000 500.000000"
 preserveAspectRatio="xMidYMid meet">

<g transform="translate(0.000000,500.000000) scale(0.100000,-0.100000)"
fill="#000000" stroke="none">
<path d="M3700 4833 c-348 -20 -648 -153 -859 -379 -248 -265 -355 -585 -363
-1081 -2 -84 -6 -153 -9 -153 -4 0 -12 7 -19 14 -23 29 -205 140 -289 177
l-86 38 -6 113 c-10 184 -57 325 -111 339 -30 8 -119 -21 -214 -69 l-60 -30
-32 52 c-63 105 -163 184 -218 170 -56 -14 -235 -259 -319 -436 -24 -52 -54
-132 -67 -178 -14 -56 -29 -90 -43 -99 -45 -33 -149 -140 -200 -206 -184 -240
-275 -565 -275 -973 0 -271 31 -472 106 -702 121 -368 362 -705 640 -895 32
-22 88 -62 124 -89 228 -173 659 -269 1130 -252 555 19 962 181 1324 527 172
164 297 333 403 543 136 270 199 515 210 808 10 283 -19 517 -107 838 -69 255
-136 527 -156 635 -22 123 -30 430 -14 548 27 200 94 351 207 465 133 134 98
172 -222 236 -115 24 -333 48 -392 44 -15 -1 -53 -3 -83 -5z m400 -184 c69
-12 126 -22 128 -24 2 -1 -19 -36 -45 -77 -61 -93 -105 -205 -135 -338 -19
-91 -22 -134 -23 -325 0 -296 24 -434 160 -925 106 -386 119 -470 120 -790 0
-217 -3 -258 -23 -358 -86 -424 -313 -805 -635 -1065 -212 -172 -461 -295
-707 -351 -185 -43 -538 -59 -775 -36 -96 9 -328 50 -321 57 1 2 52 8 112 13
447 42 684 273 771 750 13 74 17 155 17 370 1 151 -3 327 -7 392 l-8 116 107
51 c132 63 210 119 296 209 129 137 197 355 130 415 -10 9 -43 18 -77 21 -33
3 -78 12 -100 19 -109 39 -259 130 -381 231 l-62 51 -7 75 c-10 101 1 420 20
548 43 301 144 514 331 698 162 160 373 258 636 293 103 14 331 4 478 -20z
m-2564 -913 c33 -67 74 -226 74 -289 0 -18 11 -39 28 -56 23 -24 38 -29 102
-34 179 -15 360 -77 505 -171 46 -30 128 -96 182 -147 132 -123 241 -214 340
-283 85 -59 229 -132 282 -142 17 -4 31 -11 31 -18 0 -27 -131 -134 -211 -174
-140 -68 -222 -84 -459 -89 -215 -5 -282 2 -590 58 -241 44 -474 2 -657 -117
-89 -58 -212 -187 -265 -279 -60 -102 -104 -235 -118 -355 -7 -52 -13 -96 -14
-97 -6 -7 -49 203 -62 302 -20 148 -20 441 0 575 33 216 93 385 189 534 60 91
159 197 225 241 44 29 52 45 76 149 30 131 123 314 224 440 43 55 45 56 64 40
10 -10 34 -50 54 -88z m363 -66 c6 -28 11 -78 11 -112 l0 -60 -57 6 c-90 11
-91 11 -103 72 -7 30 -10 61 -7 67 4 12 121 77 138 77 4 0 12 -23 18 -50z
m-48 -1445 c215 -41 350 -55 527 -56 l167 -1 -95 -24 c-287 -73 -602 -211
-775 -341 -227 -169 -370 -367 -437 -599 -18 -65 -23 -104 -23 -221 0 -108 -3
-139 -12 -131 -28 23 -138 197 -178 281 -68 143 -89 237 -89 392 -1 94 4 148
17 195 41 149 127 287 235 374 183 147 376 185 663 131z m735 -418 l7 -176
-29 8 c-85 26 -135 65 -168 134 -27 55 -43 153 -28 175 4 7 51 23 103 36 73
19 96 21 101 12 4 -7 10 -92 14 -189z m-370 25 c28 -178 137 -299 312 -348
l62 -17 0 -58 c0 -32 -7 -109 -16 -170 -51 -369 -210 -568 -509 -635 -156 -36
-588 -12 -623 34 -7 9 -25 53 -39 97 -24 71 -27 96 -27 225 -1 125 2 155 22
220 91 289 331 520 712 686 41 18 80 33 85 33 6 1 15 -30 21 -67z"/>
</g>
</svg>
